<mxfile host="app.diagrams.net" modified="2022-12-06T13:56:56.765Z" agent="5.0 (Windows NT 10.0; Win64; x64) AppleWebKit/537.36 (KHTML, like Gecko) Chrome/107.0.0.0 Safari/537.36" etag="L45OhCb3jk_UMzeuHx15" version="20.6.0" type="github">
  <diagram name="Page-1" id="c37626ed-c26b-45fb-9056-f9ebc6bb27b6">
    <mxGraphModel dx="1422" dy="794" grid="1" gridSize="10" guides="1" tooltips="1" connect="1" arrows="1" fold="1" page="1" pageScale="1" pageWidth="1100" pageHeight="850" background="none" math="0" shadow="0">
      <root>
        <mxCell id="0" />
        <mxCell id="1" parent="0" />
        <mxCell id="VHZ3GHMBjajuuo1knQhC-50" value="" style="rounded=0;whiteSpace=wrap;html=1;" vertex="1" parent="1">
          <mxGeometry x="20" y="10" width="1060" height="820" as="geometry" />
        </mxCell>
        <mxCell id="VHZ3GHMBjajuuo1knQhC-4" value="&lt;b&gt;Спальня&lt;/b&gt;" style="whiteSpace=wrap;html=1;aspect=fixed;verticalAlign=top;" vertex="1" parent="1">
          <mxGeometry x="490" y="570" width="180" height="180" as="geometry" />
        </mxCell>
        <mxCell id="VHZ3GHMBjajuuo1knQhC-1" value="&lt;b&gt;Кухня&lt;/b&gt;" style="whiteSpace=wrap;html=1;aspect=fixed;verticalAlign=top;" vertex="1" parent="1">
          <mxGeometry x="200" y="170" width="180" height="180" as="geometry" />
        </mxCell>
        <mxCell id="VHZ3GHMBjajuuo1knQhC-2" value="&lt;b&gt;Кабинет&lt;/b&gt;" style="whiteSpace=wrap;html=1;aspect=fixed;horizontal=1;verticalAlign=top;" vertex="1" parent="1">
          <mxGeometry x="200" y="370" width="180" height="180" as="geometry" />
        </mxCell>
        <mxCell id="VHZ3GHMBjajuuo1knQhC-3" value="&lt;b&gt;Деская&lt;/b&gt;" style="whiteSpace=wrap;html=1;aspect=fixed;verticalAlign=top;" vertex="1" parent="1">
          <mxGeometry x="200" y="570" width="180" height="180" as="geometry" />
        </mxCell>
        <mxCell id="VHZ3GHMBjajuuo1knQhC-5" value="&lt;b&gt;Технологический шкаф&lt;/b&gt;" style="whiteSpace=wrap;html=1;aspect=fixed;verticalAlign=top;" vertex="1" parent="1">
          <mxGeometry x="490" y="370" width="180" height="180" as="geometry" />
        </mxCell>
        <mxCell id="VHZ3GHMBjajuuo1knQhC-6" value="&lt;b&gt;IP адрессация:&lt;/b&gt;&lt;br&gt;&lt;br&gt;&lt;br&gt;&lt;div style=&quot;text-align: left;&quot;&gt;&lt;b style=&quot;background-color: initial;&quot;&gt;ISP IP:&lt;/b&gt;&lt;span style=&quot;background-color: initial;&quot;&gt; IPOE DCHP&amp;nbsp;&lt;/span&gt;&lt;/div&gt;&lt;div style=&quot;text-align: left;&quot;&gt;&lt;b&gt;&lt;br&gt;&lt;/b&gt;&lt;/div&gt;&lt;div style=&quot;text-align: left;&quot;&gt;&lt;b&gt;LAN IP: &lt;/b&gt;192.168.56.0/24 DHCP&lt;/div&gt;&lt;div style=&quot;text-align: left;&quot;&gt;&lt;br&gt;&lt;/div&gt;&lt;div style=&quot;text-align: left;&quot;&gt;&lt;b&gt;WiFi SSID:&lt;/b&gt; Home - WiFi&lt;/div&gt;" style="whiteSpace=wrap;html=1;aspect=fixed;verticalAlign=top;align=center;" vertex="1" parent="1">
          <mxGeometry x="740" y="570" width="180" height="180" as="geometry" />
        </mxCell>
        <mxCell id="VHZ3GHMBjajuuo1knQhC-8" value="&lt;b&gt;ISP&lt;br&gt;ASVT&lt;/b&gt;" style="ellipse;shape=cloud;whiteSpace=wrap;html=1;" vertex="1" parent="1">
          <mxGeometry x="760" y="360" width="220" height="130" as="geometry" />
        </mxCell>
        <mxCell id="VHZ3GHMBjajuuo1knQhC-15" style="orthogonalLoop=1;jettySize=auto;html=1;exitX=0.5;exitY=1;exitDx=0;exitDy=0;exitPerimeter=0;entryX=0.5;entryY=0;entryDx=0;entryDy=0;entryPerimeter=0;rounded=0;endArrow=none;endFill=0;dashed=1;" edge="1" parent="1" source="VHZ3GHMBjajuuo1knQhC-10" target="VHZ3GHMBjajuuo1knQhC-11">
          <mxGeometry relative="1" as="geometry" />
        </mxCell>
        <mxCell id="VHZ3GHMBjajuuo1knQhC-10" value="" style="shape=mxgraph.cisco.routers.wireless_router;sketch=0;html=1;pointerEvents=1;dashed=0;fillColor=#036897;strokeColor=#ffffff;strokeWidth=2;verticalLabelPosition=bottom;verticalAlign=top;align=center;outlineConnect=0;" vertex="1" parent="1">
          <mxGeometry x="530" y="395" width="78" height="70" as="geometry" />
        </mxCell>
        <mxCell id="VHZ3GHMBjajuuo1knQhC-11" value="" style="shape=mxgraph.cisco.switches.workgroup_switch;sketch=0;html=1;pointerEvents=1;dashed=0;fillColor=#036897;strokeColor=#ffffff;strokeWidth=2;verticalLabelPosition=bottom;verticalAlign=top;align=center;outlineConnect=0;" vertex="1" parent="1">
          <mxGeometry x="518.5" y="491" width="101" height="40" as="geometry" />
        </mxCell>
        <mxCell id="VHZ3GHMBjajuuo1knQhC-18" value="UTP cat 6" style="orthogonalLoop=1;jettySize=auto;html=1;rounded=0;endArrow=none;endFill=0;exitX=0.119;exitY=0.541;exitDx=0;exitDy=0;exitPerimeter=0;strokeColor=#000000;dashed=1;align=center;verticalAlign=middle;horizontal=1;" edge="1" parent="1" source="VHZ3GHMBjajuuo1knQhC-8" target="VHZ3GHMBjajuuo1knQhC-10">
          <mxGeometry relative="1" as="geometry">
            <mxPoint x="770" y="430" as="sourcePoint" />
            <mxPoint x="579" y="505" as="targetPoint" />
          </mxGeometry>
        </mxCell>
        <mxCell id="VHZ3GHMBjajuuo1knQhC-22" style="orthogonalLoop=1;jettySize=auto;html=1;rounded=0;endArrow=none;endFill=0;exitX=0.119;exitY=0.541;exitDx=0;exitDy=0;exitPerimeter=0;strokeColor=#000000;dashed=1;" edge="1" parent="1">
          <mxGeometry relative="1" as="geometry">
            <mxPoint x="518.9999999999998" y="520.3300000000002" as="sourcePoint" />
            <mxPoint x="390" y="520" as="targetPoint" />
          </mxGeometry>
        </mxCell>
        <mxCell id="VHZ3GHMBjajuuo1knQhC-23" style="orthogonalLoop=1;jettySize=auto;html=1;rounded=0;endArrow=none;endFill=0;exitX=0.119;exitY=0.541;exitDx=0;exitDy=0;exitPerimeter=0;strokeColor=#000000;dashed=1;" edge="1" parent="1">
          <mxGeometry relative="1" as="geometry">
            <mxPoint x="519.4999999999998" y="510.8000000000002" as="sourcePoint" />
            <mxPoint x="429.5" y="510.47" as="targetPoint" />
          </mxGeometry>
        </mxCell>
        <mxCell id="VHZ3GHMBjajuuo1knQhC-24" style="orthogonalLoop=1;jettySize=auto;html=1;rounded=0;endArrow=none;endFill=0;exitX=0.119;exitY=0.541;exitDx=0;exitDy=0;exitPerimeter=0;strokeColor=#000000;dashed=1;" edge="1" parent="1">
          <mxGeometry relative="1" as="geometry">
            <mxPoint x="518.4999999999998" y="529.9900000000002" as="sourcePoint" />
            <mxPoint x="428.5" y="529.6600000000001" as="targetPoint" />
          </mxGeometry>
        </mxCell>
        <mxCell id="VHZ3GHMBjajuuo1knQhC-25" value="" style="shape=mxgraph.cisco.people.pc_man;sketch=0;html=1;pointerEvents=1;dashed=0;fillColor=#036897;strokeColor=#ffffff;strokeWidth=2;verticalLabelPosition=bottom;verticalAlign=top;align=center;outlineConnect=0;" vertex="1" parent="1">
          <mxGeometry x="220" y="620" width="70" height="80" as="geometry" />
        </mxCell>
        <mxCell id="VHZ3GHMBjajuuo1knQhC-26" value="" style="shape=mxgraph.cisco.people.sitting_woman;sketch=0;html=1;pointerEvents=1;dashed=0;fillColor=#036897;strokeColor=#ffffff;strokeWidth=2;verticalLabelPosition=bottom;verticalAlign=top;align=center;outlineConnect=0;" vertex="1" parent="1">
          <mxGeometry x="220" y="415" width="56" height="90" as="geometry" />
        </mxCell>
        <mxCell id="VHZ3GHMBjajuuo1knQhC-27" value="" style="shape=mxgraph.cisco.misc.tv;sketch=0;html=1;pointerEvents=1;dashed=0;fillColor=#036897;strokeColor=#ffffff;strokeWidth=2;verticalLabelPosition=bottom;verticalAlign=top;align=center;outlineConnect=0;" vertex="1" parent="1">
          <mxGeometry x="500" y="630" width="53" height="53" as="geometry" />
        </mxCell>
        <mxCell id="VHZ3GHMBjajuuo1knQhC-28" value="" style="shape=mxgraph.cisco.misc.tv;sketch=0;html=1;pointerEvents=1;dashed=0;fillColor=#036897;strokeColor=#ffffff;strokeWidth=2;verticalLabelPosition=bottom;verticalAlign=top;align=center;outlineConnect=0;" vertex="1" parent="1">
          <mxGeometry x="228.5" y="230" width="53" height="53" as="geometry" />
        </mxCell>
        <mxCell id="VHZ3GHMBjajuuo1knQhC-29" style="orthogonalLoop=1;jettySize=auto;html=1;rounded=0;endArrow=none;endFill=0;strokeColor=#000000;dashed=1;" edge="1" parent="1">
          <mxGeometry relative="1" as="geometry">
            <mxPoint x="430" y="250.03" as="sourcePoint" />
            <mxPoint x="281.5" y="250.00000000000003" as="targetPoint" />
          </mxGeometry>
        </mxCell>
        <mxCell id="VHZ3GHMBjajuuo1knQhC-30" style="orthogonalLoop=1;jettySize=auto;html=1;rounded=0;endArrow=none;endFill=0;strokeColor=#000000;dashed=1;" edge="1" parent="1">
          <mxGeometry relative="1" as="geometry">
            <mxPoint x="430" y="250" as="sourcePoint" />
            <mxPoint x="430" y="510" as="targetPoint" />
          </mxGeometry>
        </mxCell>
        <mxCell id="VHZ3GHMBjajuuo1knQhC-40" value="UTP cat 6" style="edgeLabel;html=1;align=center;verticalAlign=middle;resizable=0;points=[];horizontal=0;" vertex="1" connectable="0" parent="VHZ3GHMBjajuuo1knQhC-30">
          <mxGeometry x="0.4077" y="1" relative="1" as="geometry">
            <mxPoint as="offset" />
          </mxGeometry>
        </mxCell>
        <mxCell id="VHZ3GHMBjajuuo1knQhC-33" style="orthogonalLoop=1;jettySize=auto;html=1;rounded=0;endArrow=none;endFill=0;strokeColor=#000000;dashed=1;" edge="1" parent="1">
          <mxGeometry relative="1" as="geometry">
            <mxPoint x="390" y="440" as="sourcePoint" />
            <mxPoint x="276" y="440" as="targetPoint" />
          </mxGeometry>
        </mxCell>
        <mxCell id="VHZ3GHMBjajuuo1knQhC-34" value="UPT cat 6" style="orthogonalLoop=1;jettySize=auto;html=1;rounded=0;endArrow=none;endFill=0;strokeColor=#000000;dashed=1;horizontal=0;" edge="1" parent="1">
          <mxGeometry relative="1" as="geometry">
            <mxPoint x="390" y="440" as="sourcePoint" />
            <mxPoint x="390" y="520" as="targetPoint" />
          </mxGeometry>
        </mxCell>
        <mxCell id="VHZ3GHMBjajuuo1knQhC-35" value="UTP cat 6" style="orthogonalLoop=1;jettySize=auto;html=1;rounded=0;endArrow=none;endFill=0;strokeColor=#000000;dashed=1;horizontal=0;" edge="1" parent="1">
          <mxGeometry relative="1" as="geometry">
            <mxPoint x="430" y="531" as="sourcePoint" />
            <mxPoint x="430" y="660" as="targetPoint" />
          </mxGeometry>
        </mxCell>
        <mxCell id="VHZ3GHMBjajuuo1knQhC-36" style="orthogonalLoop=1;jettySize=auto;html=1;rounded=0;endArrow=none;endFill=0;strokeColor=#000000;dashed=1;" edge="1" parent="1" source="VHZ3GHMBjajuuo1knQhC-25">
          <mxGeometry relative="1" as="geometry">
            <mxPoint x="410" y="460" as="sourcePoint" />
            <mxPoint x="430" y="660" as="targetPoint" />
          </mxGeometry>
        </mxCell>
        <mxCell id="VHZ3GHMBjajuuo1knQhC-38" style="orthogonalLoop=1;jettySize=auto;html=1;rounded=0;endArrow=none;endFill=0;strokeColor=#000000;dashed=1;" edge="1" parent="1">
          <mxGeometry relative="1" as="geometry">
            <mxPoint x="530" y="530" as="sourcePoint" />
            <mxPoint x="530" y="630" as="targetPoint" />
          </mxGeometry>
        </mxCell>
        <mxCell id="VHZ3GHMBjajuuo1knQhC-39" value="UTP 6 cat" style="edgeLabel;html=1;align=center;verticalAlign=middle;resizable=0;points=[];rotation=270;" vertex="1" connectable="0" parent="VHZ3GHMBjajuuo1knQhC-38">
          <mxGeometry x="0.36" y="-2" relative="1" as="geometry">
            <mxPoint as="offset" />
          </mxGeometry>
        </mxCell>
        <mxCell id="VHZ3GHMBjajuuo1knQhC-44" value="&lt;h1&gt;Диаграмма домашней сети&amp;nbsp;&lt;/h1&gt;" style="text;html=1;strokeColor=none;fillColor=none;spacing=5;spacingTop=-20;whiteSpace=wrap;overflow=hidden;rounded=0;" vertex="1" parent="1">
          <mxGeometry x="375" y="50" width="350" height="40" as="geometry" />
        </mxCell>
      </root>
    </mxGraphModel>
  </diagram>
</mxfile>
